# xmcd
#
# Track frame offsets: 
#        150
#        20749
#        44402
#        63402
#        80134
#        96426
#        119955
#        135910
#        158942
#        176551
#
# Disc length: 2542 seconds
#
# Revision: 0
# Processed by: cddbd v1.5.2PL0 Copyright (c) Steve Scherf et al.
# Submitted via: ExactAudioCopy v0.99pb4
#
DISCID=9009ec0a
DTITLE=Manhattans - It Feels So Good
DYEAR=1977
DGENRE=R&B
TTITLE0=It Feels So Good To Be Loved So Bad
TTITLE1=It Just Can't Stay This Way
TTITLE2=We Never Danced To A Love Song
TTITLE3=Mind Your Business
TTITLE4=Too Much For Me To Bare
TTITLE5=I Kinda Miss You
TTITLE6=Up On The Street (Where I Live)
TTITLE7=Let's Start It All Over Again
TTITLE8=It's You
TTITLE9=I'll See You Tomorrow
EXTD=
EXTT0=
EXTT1=
EXTT2=
EXTT3=
EXTT4=
EXTT5=
EXTT6=
EXTT7=
EXTT8=
EXTT9=
PLAYORDER=
